<svg aria-hidden="true" style="position:absolute;width:0;height:0;overflow:hidden" xmlns="http://www.w3.org/2000/svg"><defs><symbol id="close-btn" viewBox="0 0 32 32"><path stroke-linejoin="round" stroke-linecap="round" stroke-width="1.333" d="M23 23 9 9m14 0L9 23"/></symbol><symbol id="orange-heart" viewBox="0 0 14 13" fill="none"><path d="M7 12.88L6.02 11.9C2.38 8.68 0 6.51 0 3.85C0 1.68 1.68 0 3.85 0C5.04 0 6.23 0.56 7 1.47C7.77 0.56 8.96 0 10.15 0C12.32 0 14 1.68 14 3.85C14 6.51 11.62 8.68 7.98 11.9L7 12.88Z" fill="#F87719"/></symbol><symbol id="search" viewBox="0 0 32 32"><path fill="none" stroke-linejoin="round" stroke-linecap="round" stroke-width="2.311" d="M14.667 25.333c5.891 0 10.667-4.776 10.667-10.667S20.558 3.999 14.667 3.999 4 8.775 4 14.666s4.776 10.667 10.667 10.667zM28.001 28l-5.8-5.8"/></symbol><symbol id="to-top-arrow" viewBox="0 0 32 32"><path d="M16 1l-15 15h9v16h12v-16h9z"></path></symbol></defs></svg>